<?xml version="1.0" standalone="no"?><!DOCTYPE svg PUBLIC "-//W3C//DTD SVG 1.1//EN" "http://www.w3.org/Graphics/SVG/1.1/DTD/svg11.dtd"><svg t="1539836673794" class="icon" style="" viewBox="0 0 1024 1024" version="1.1" xmlns="http://www.w3.org/2000/svg" p-id="3691" xmlns:xlink="http://www.w3.org/1999/xlink" width="200" height="200"><defs><style type="text/css"></style></defs><path d="M507.336 126.664c-196.984 0-356.664 159.688-356.664 356.664C150.664 680.32 310.352 840 507.336 840S864 680.32 864 483.336c0-196.984-159.688-356.672-356.664-356.672zM507.328 824c-188.144 0-340.664-152.512-340.664-340.664 0-188.144 152.52-340.664 340.664-340.664C695.48 142.664 848 295.192 848 483.336 848 671.488 695.48 824 507.328 824z" p-id="3692"></path><path d="M507.328 483.336m-134.664 0a134.664 134.664 0 1 0 269.328 0 134.664 134.664 0 1 0-269.328 0Z" p-id="3693"></path></svg>